<svg xmlns="http://www.w3.org/2000/svg" xmlns:xlink="http://www.w3.org/1999/xlink" width="48" height="48" id="scan"><defs><linearGradient id="b" x1="868.253" x2="937.656" y1="521.354" y2="588.736" gradientTransform="translate(-1326.967 -1845.382) scale(1.53785)" gradientUnits="userSpaceOnUse" xlink:href="#a"></linearGradient><linearGradient id="a"><stop offset="0" stop-color="#24f3d2"></stop><stop offset=".394" stop-color="#0674f0"></stop><stop offset=".507" stop-color="#6961b5"></stop><stop offset=".813" stop-color="#f34660"></stop><stop offset="1" stop-color="#ee078d"></stop></linearGradient></defs><g font-family="sans-serif" font-size="45.121" font-weight="400" letter-spacing="0" transform="translate(0 -1004.362)" word-spacing="0"><rect width="48" height="48" x=".001" y="-1052.362" fill="url(#b)" rx="10.144" ry="10.144" transform="scale(1 -1)"></rect><path style="line-height:125%;text-indent:0;text-align:start;text-decoration-line:none;text-transform:none;block-progression:tb" fill="#fff" d="M11 1020.362h27v16H11zm2 2v12h1v-12zm2 0v12h1v-12zm2 0v9h1v-9zm2 0v9h1v-9zm2 0v9h1v-9zm2 0v9h1v-9zm2 0v9h1v-9zm2 0v9h1v-9zm2 0v12h1v-12zm2 0v9h1v-9zm2 0v9h1v-9zm2 0v12h1v-12zm-18 11v1h1v-1zm2 0v1h1v-1zm2 0v1h1v-1zm2 0v1h1v-1zm2 0v1h1v-1zm2 0v1h1v-1zm4 0v1h1v-1zm2 0v1h1v-1z" color="#000" font-size="medium" overflow="visible"></path></g></svg>